{
  "accessors": [
    {
      "bufferView": 0,
      "componentType": 5126,
      "count": 2888,
      "type": "VEC3",
      "max": [0.320482462644577, 1.426974892616272, 0.72595500946044922],
      "min": [-0.26738250255584717, 0.025475075468420982, -0.23889017105102539]
    },
    {
      "bufferView": 1,
      "componentType": 5126,
      "count": 2888,
      "type": "VEC3",
      "max": [0.99986791610717773, 0.99086678028106689, 0.99668067693710327],
      "min": [-0.99946814775466919, -0.999931812286377, -0.99953329563140869]
    },
    {
      "bufferView": 2,
      "componentType": 5126,
      "count": 2888,
      "type": "VEC4",
      "max": [
        0.99926072359085083, 0.99996626377105713, 0.96814596652984619, 1.0
      ],
      "min": [
        -0.99905604124069214, -0.99991214275360107, -0.99897241592407227, -1.0
      ]
    },
    {
      "bufferView": 3,
      "componentType": 5126,
      "count": 2888,
      "type": "VEC2",
      "max": [1.0012999773025513, 0.99809998273849487],
      "min": [-0.00019999999494757503, 0.000599980354309082]
    },
    {
      "bufferView": 4,
      "componentType": 5123,
      "count": 7716,
      "type": "SCALAR",
      "max": [2887.0],
      "min": [0.0]
    }
  ],
  "asset": {
    "version": "2.0"
  },
  "buffers": [
    {
      "uri": "delicate_water_2025-05-26_13.16.44.bin",
      "byteLength": 154056
    }
  ],
  "bufferViews": [
    {
      "buffer": 0,
      "byteLength": 34656
    },
    {
      "buffer": 0,
      "byteOffset": 34656,
      "byteLength": 34656
    },
    {
      "buffer": 0,
      "byteOffset": 69312,
      "byteLength": 46208
    },
    {
      "buffer": 0,
      "byteOffset": 115520,
      "byteLength": 23104
    },
    {
      "buffer": 0,
      "byteOffset": 138624,
      "byteLength": 15432
    }
  ],
  "materials": [
    {
      "pbrMetallicRoughness": {
        "baseColorFactor": [0.607843161, 0.607843161, 0.607843161, 1.0],
        "metallicFactor": 0.0,
        "roughnessFactor": 0.39999997615814209
      },
      "name": "Object 12_09B9B9BFF_0_40"
    }
  ],
  "meshes": [
    {
      "primitives": [
        {
          "attributes": {
            "POSITION": 0,
            "NORMAL": 1,
            "TANGENT": 2,
            "TEXCOORD_0": 3
          },
          "indices": 4,
          "material": 0
        }
      ],
      "name": "Seated driving"
    }
  ],
  "nodes": [
    {
      "children": [1],
      "rotation": [0.0, 0.0, 0.0, -1.0],
      "name": "Space Descriptor"
    },
    {
      "mesh": 0,
      "rotation": [0.310474634, -0.122598447, -0.0404169559, -0.9417758],
      "scale": [0.9999999, 1.0, 0.9999998],
      "translation": [0.7719637, 0.202094913, 0.227968216],
      "name": "Seated driving"
    }
  ],
  "scene": 0,
  "scenes": [
    {
      "nodes": [0],
      "name": "delicate_water_2025-05-26_13.16.44"
    }
  ]
}
