{
  "accessors": [
    {
      "bufferView": 2,
      "componentType": 5126,
      "count": 9995,
      "max": [
        0.5316969752311707,
        2.5316970348358154,
        0.5316969752311707
      ],
      "min": [
        -2.5316970348358154,
        -0.5316969752311707,
        -2.5316970348358154
      ],
      "type": "VEC3"
    },
    {
      "bufferView": 2,
      "byteOffset": 119940,
      "componentType": 5126,
      "count": 9995,
      "max": [
        0.9999929070472717,
        0.9999929070472717,
        0.9999929070472717
      ],
      "min": [
        -0.9999929070472717,
        -0.9999929070472717,
        -0.9999929070472717
      ],
      "type": "VEC3"
    },
    {
      "bufferView": 3,
      "componentType": 5126,
      "count": 9995,
      "max": [
        1.0,
        1.0,
        1.0,
        1.0
      ],
      "min": [
        -0.815782904624939,
        -1.0,
        -1.0,
        1.0
      ],
      "type": "VEC4"
    },
    {
      "bufferView": 1,
      "componentType": 5126,
      "count": 9995,
      "max": [
        0.9860429763793945,
        0.9941329956054688
      ],
      "min": [
        0.00945299956947565,
        0.04989900067448616
      ],
      "type": "VEC2"
    },
    {
      "bufferView": 0,
      "componentType": 5125,
      "count": 40209,
      "type": "SCALAR"
    },
    {
      "bufferView": 2,
      "byteOffset": 239880,
      "componentType": 5126,
      "count": 4549,
      "max": [
        0.5316969752311707,
        2.5316970348358154,
        0.5316969752311707
      ],
      "min": [
        -2.5316970348358154,
        -0.5316969752311707,
        -2.5316970348358154
      ],
      "type": "VEC3"
    },
    {
      "bufferView": 2,
      "byteOffset": 294468,
      "componentType": 5126,
      "count": 4549,
      "max": [
        0.9999929070472717,
        0.9999929070472717,
        0.9999929070472717
      ],
      "min": [
        -0.9999929070472717,
        -0.9999929070472717,
        -0.9999929070472717
      ],
      "type": "VEC3"
    },
    {
      "bufferView": 3,
      "byteOffset": 159920,
      "componentType": 5126,
      "count": 4549,
      "max": [
        1.0,
        1.0,
        1.0,
        1.0
      ],
      "min": [
        -0.8157776594161987,
        -1.0,
        -1.0,
        1.0
      ],
      "type": "VEC4"
    },
    {
      "bufferView": 1,
      "byteOffset": 79960,
      "componentType": 5126,
      "count": 4549,
      "max": [
        0.9852949976921082,
        0.9934470057487488
      ],
      "min": [
        0.010212999768555164,
        0.05090700089931488
      ],
      "type": "VEC2"
    },
    {
      "bufferView": 0,
      "byteOffset": 160836,
      "componentType": 5125,
      "count": 17691,
      "type": "SCALAR"
    }
  ],
  "asset": {
    "extras": {
      "author": "Artyom (https://sketchfab.com/Art62)",
      "license": "CC-BY-4.0 (http://creativecommons.org/licenses/by/4.0/)",
      "source": "https://sketchfab.com/3d-models/rubiks-cube-61f92b464a4a49fe9a95cffe1a2c8d28",
      "title": "Rubik's Cube"
    },
    "generator": "Sketchfab-12.67.0",
    "version": "2.0"
  },
  "bufferViews": [
    {
      "buffer": 0,
      "byteLength": 231600,
      "name": "floatBufferViews",
      "target": 34963
    },
    {
      "buffer": 0,
      "byteLength": 116352,
      "byteOffset": 231600,
      "byteStride": 8,
      "name": "floatBufferViews",
      "target": 34962
    },
    {
      "buffer": 0,
      "byteLength": 349056,
      "byteOffset": 347952,
      "byteStride": 12,
      "name": "floatBufferViews",
      "target": 34962
    },
    {
      "buffer": 0,
      "byteLength": 232704,
      "byteOffset": 697008,
      "byteStride": 16,
      "name": "floatBufferViews",
      "target": 34962
    }
  ],
  "buffers": [
    {
      "byteLength": 929712,
      "uri": "scene.bin"
    }
  ],
  "images": [
    {
      "uri": "textures/initialShadingGroup_baseColor.png"
    },
    {
      "uri": "textures/initialShadingGroup_metallicRoughness.png"
    },
    {
      "uri": "textures/initialShadingGroup_normal.png"
    }
  ],
  "materials": [
    {
      "doubleSided": true,
      "name": "initialShadingGroup",
      "normalTexture": {
        "index": 2
      },
      "occlusionTexture": {
        "index": 1
      },
      "pbrMetallicRoughness": {
        "baseColorTexture": {
          "index": 0
        },
        "metallicRoughnessTexture": {
          "index": 1
        }
      }
    }
  ],
  "meshes": [
    {
      "name": "Object_0",
      "primitives": [
        {
          "attributes": {
            "NORMAL": 1,
            "POSITION": 0,
            "TANGENT": 2,
            "TEXCOORD_0": 3
          },
          "indices": 4,
          "material": 0,
          "mode": 4
        }
      ]
    },
    {
      "name": "Object_1",
      "primitives": [
        {
          "attributes": {
            "NORMAL": 6,
            "POSITION": 5,
            "TANGENT": 7,
            "TEXCOORD_0": 8
          },
          "indices": 9,
          "material": 0,
          "mode": 4
        }
      ]
    }
  ],
  "nodes": [
    {
      "children": [
        1
      ],
      "matrix": [
        0.03769347071647644,
        0.0,
        0.0,
        0.0,
        0.0,
        8.369631813493248e-18,
        -0.03769347071647644,
        0.0,
        0.0,
        0.03769347071647644,
        8.369631813493248e-18,
        0.0,
        0.0,
        0.0,
        0.0,
        1.0
      ],
      "name": "Sketchfab_model"
    },
    {
      "children": [
        2,
        3
      ],
      "name": "cubeTest.obj.cleaner.materialmerger.gles"
    },
    {
      "mesh": 0,
      "name": "Object_2"
    },
    {
      "mesh": 1,
      "name": "Object_3"
    }
  ],
  "samplers": [
    {
      "magFilter": 9729,
      "minFilter": 9987,
      "wrapS": 10497,
      "wrapT": 10497
    }
  ],
  "scene": 0,
  "scenes": [
    {
      "name": "Sketchfab_Scene",
      "nodes": [
        0
      ]
    }
  ],
  "textures": [
    {
      "sampler": 0,
      "source": 0
    },
    {
      "sampler": 0,
      "source": 1
    },
    {
      "sampler": 0,
      "source": 2
    }
  ]
}
